<svg viewBox="0 0 200 200" xmlns="http://www.w3.org/2000/svg">
  <!-- Background -->
  <circle cx="100" cy="100" r="95" fill="#FFF0E6" opacity="0.5"/>

  <!-- Happy kid face -->
  <circle cx="100" cy="90" r="35" fill="#FF8C42"/>

  <!-- Eyes -->
  <circle cx="85" cy="80" r="5" fill="white"/>
  <circle cx="115" cy="80" r="5" fill="white"/>

  <!-- Pupils with shine -->
  <circle cx="85" cy="80" r="3" fill="#0E95B8"/>
  <circle cx="115" cy="80" r="3" fill="#0E95B8"/>
  <circle cx="87" cy="78" r="1.5" fill="white"/>
  <circle cx="117" cy="78" r="1.5" fill="white"/>

  <!-- Big smile -->
  <path d="M 80 95 Q 100 110 120 95" fill="white" stroke="white" stroke-width="3" stroke-linecap="round"/>

  <!-- Tooth icon (simple) -->
  <path d="M 70 50 Q 75 45 80 50 L 80 65 Q 75 70 70 65 Z" fill="#0E95B8"/>

  <!-- Star (happy indicator) -->
  <path d="M 135 55 L 140 65 L 150 65 L 142 72 L 145 82 L 135 76 L 125 82 L 128 72 L 120 65 L 130 65 Z" fill="#FFD700"/>

  <!-- Text -->
  <text x="100" y="175" font-size="16" font-weight="bold" text-anchor="middle" fill="#FF8C42" font-family="Arial">Kids Dentistry</text>
</svg>